<svg width="120" height="120" viewBox="0 0 120 120" fill="none" xmlns="http://www.w3.org/2000/svg">
<path fill-rule="evenodd" clip-rule="evenodd" d="M79.8129 49.56C78.3747 45.2299 76.9568 40.956 75.6829 36.8796C75.6834 36.8814 75.6801 36.8695 75.6726 36.8429C75.6627 36.8077 75.6455 36.7471 75.6205 36.6588L75.3791 35.8059C75.1824 35.1102 74.9088 34.1432 74.5823 32.9976C73.9298 30.7078 73.064 27.6978 72.1737 24.6998C71.2867 21.7128 70.3627 18.6945 69.596 16.4049C69.2173 15.274 68.8503 14.2402 68.5279 13.4561C68.3754 13.0852 68.1778 12.6335 67.9461 12.2225C67.8412 12.0366 67.6284 11.6752 67.3053 11.3035C67.1439 11.1179 66.8432 10.7985 66.3978 10.4976C65.9745 10.2117 65.1056 9.73029 63.9008 9.73029C62.1701 9.73029 60.9132 10.5637 60.2114 11.1816C59.4981 11.8099 58.9792 12.5398 58.6167 13.1277C57.8843 14.3156 57.3044 15.733 56.868 16.9501C56.0805 19.1466 55.4885 21.4865 55.2553 22.4083C55.2252 22.5271 55.2011 22.6224 55.1833 22.6908C53.1793 30.3903 50.9378 38.0643 48.4642 45.6526C46.3961 45.4721 44.3122 45.3638 42.2242 45.3638C39.8062 45.3638 37.8461 47.324 37.8461 49.7419C37.8461 52.1599 39.8062 54.12 42.2242 54.12C43.3321 54.12 44.4431 54.1549 45.5594 54.2187C44.6477 56.8055 43.7088 59.3795 42.7428 61.9381C41.1828 66.07 39.6334 69.9766 38.0694 73.9203C36.7044 77.362 35.3282 80.832 33.924 84.5045C33.3931 85.8931 33.047 87.1878 33.047 88.9645C33.047 91.3825 35.0071 93.3426 37.4251 93.3426C39.843 93.3426 41.8032 91.3825 41.8032 88.9645C41.8032 88.552 41.8316 88.3408 42.1028 87.6316C43.3713 84.3139 44.7508 80.8308 46.1419 77.3183C47.777 73.1897 49.4284 69.02 50.9345 65.0309C52.1627 61.7779 53.3478 58.5017 54.4894 55.2071C56.428 55.4974 58.3978 55.8241 60.4092 56.1588L60.5982 56.1903C64.7159 56.8757 69.015 57.5912 73.383 57.9927C75.0173 62.9499 76.5923 67.8576 77.9752 72.6978C78.2885 73.7944 78.3085 75.1232 78.272 77.246L78.2668 77.5348C78.2331 79.3822 78.1875 81.8843 78.7974 84.3239C79.3838 86.6697 81.7609 88.0959 84.1066 87.5094C86.4524 86.923 87.8786 84.546 87.2921 82.2002C86.9825 80.9617 86.9899 79.5443 87.0269 77.3966L87.0294 77.2543C87.0623 75.3702 87.1074 72.7873 86.3945 70.2923C85.217 66.1709 83.863 61.8801 82.4543 57.5591C83.6108 56.7711 84.3703 55.4434 84.3703 53.9384C84.3703 51.5204 82.4101 49.5603 79.9922 49.5603C79.9324 49.5603 79.8727 49.5602 79.8129 49.56ZM63.7798 27.1924C63.6513 26.7598 63.5227 26.3285 63.3944 25.9008C61.5554 32.8939 59.5238 39.8677 57.3029 46.7792C58.7868 47.0122 60.2526 47.2561 61.6956 47.4963L61.8466 47.5214C64.7599 48.0063 67.5823 48.474 70.3461 48.839C69.3201 45.7363 68.3027 42.619 67.3253 39.4913C67.306 39.4297 67.1924 39.0287 67.0076 38.3762C66.4129 36.2765 65.0805 31.5724 63.7798 27.1924Z" fill="black"/>
</svg>
