<svg width="120" height="120" viewBox="0 0 120 120" fill="none" xmlns="http://www.w3.org/2000/svg">
<path fill-rule="evenodd" clip-rule="evenodd" d="M65.176 21.8085C60.7063 20.3426 54.5191 20.685 48.6637 21.958C47.4554 22.2206 46.0376 22.4213 44.7379 22.604C44.6784 22.6124 44.619 22.6207 44.5596 22.6291C43.2562 22.8122 41.9927 22.9897 40.7829 23.2154C39.5092 23.4531 38.4593 23.7158 37.657 24.0167C37.376 24.1221 37.1645 24.218 37.0088 24.2975C36.9489 24.9115 36.9496 25.7651 37.007 26.8218C37.0618 27.83 37.1579 28.8666 37.2524 29.8865C37.2578 29.9452 37.2633 30.0039 37.2687 30.0625L37.2726 30.1041C37.3617 31.0674 37.4662 32.1953 37.4662 33.0504V85.2523C37.4662 85.503 37.4451 85.7487 37.4046 85.9879C37.7655 86.3297 38.0739 86.7392 38.309 87.2095C38.4247 87.4408 38.5598 87.6624 39.3387 87.8137C40.3093 88.0023 41.7995 87.9402 43.8444 87.5289C45.8308 87.1293 47.9716 86.481 50.1402 85.7826C50.5405 85.6537 50.9487 85.5206 51.36 85.3865C53.0517 84.835 54.7946 84.2669 56.2421 83.905C63.5903 82.068 69.8528 80.2366 76.6211 77.649C76.5385 77.3748 76.412 77.0234 76.2255 76.577C76.0102 76.0617 75.8158 75.6422 75.5942 75.1642C75.4342 74.8192 75.2602 74.4438 75.054 73.9799C73.9013 71.3864 73.3053 68.972 72.8592 67.0401C72.815 66.8487 72.7728 66.6652 72.7323 66.4889C72.3275 64.7285 72.0907 63.6985 71.7175 62.8562C71.4184 62.1809 71.1465 61.9022 70.6694 61.6606C70.0017 61.3223 68.6012 60.9193 65.7143 60.9193C62.1579 60.9193 58.7498 60.5745 55.5839 60.2542L55.489 60.2445C52.2322 59.9151 49.2227 59.6143 46.1386 59.6143H45.4135V50.8581C51.0753 50.8581 57.9197 49.018 63.2392 45.539C68.5139 42.0893 71.7766 37.4232 71.7766 31.7453C71.7766 28.4524 70.9656 26.3563 69.93 24.97C68.8825 23.5678 67.3203 22.5117 65.176 21.8085ZM68.8607 52.3081C75.3418 47.8011 80.5327 40.9126 80.5327 31.7453C80.5327 26.9516 79.3231 22.9131 76.9449 19.7296C74.5786 16.562 71.3336 14.6129 67.9047 13.4883C61.2281 11.2987 53.2048 12.0101 46.8036 13.4016C45.9742 13.5819 44.8961 13.7395 43.5189 13.9331C43.4427 13.9438 43.3657 13.9546 43.288 13.9655C42.03 14.1421 40.5868 14.3447 39.1767 14.6078C37.6883 14.8856 36.0721 15.2592 34.5815 15.8184C33.144 16.3577 31.4348 17.2096 30.1239 18.6661C28.7222 20.2235 28.419 22.2603 28.3065 23.3238C28.168 24.6338 28.1961 26.0508 28.2637 27.2967C28.3279 28.4789 28.4386 29.6716 28.5304 30.66C28.5369 30.731 28.5434 30.8008 28.5498 30.8696C28.6545 32.0003 28.71 32.681 28.71 33.0504V85.2523C28.71 86.5038 29.2352 87.6327 30.0772 88.4307C29.9251 89.3174 30.044 90.2589 30.4772 91.1253C32.0658 94.3025 34.8404 95.8598 37.669 96.4093C40.3058 96.9214 43.1209 96.606 45.5713 96.1131C48.0802 95.6084 50.625 94.8255 52.8243 94.1172C53.3223 93.9569 53.796 93.8027 54.247 93.6559C55.8985 93.1183 57.246 92.6797 58.3658 92.3997C66.0332 90.4829 72.7322 88.5265 80.0464 85.7134C81.8603 85.0158 83.5218 83.8627 84.5477 82.0403C85.5616 80.2392 85.616 78.383 85.4121 76.938C85.2135 75.5309 84.73 74.2191 84.305 73.2017C84.0474 72.5851 83.7039 71.8392 83.4204 71.2234C83.2772 70.9126 83.1494 70.6349 83.0555 70.4237C82.2594 68.6324 81.8127 66.8969 81.391 65.0703C81.3463 64.8769 81.3008 64.676 81.2538 64.4688C80.899 62.9025 80.4637 60.9809 79.7233 59.3097C78.7737 57.166 77.2409 55.1739 74.6262 53.8494C72.9629 53.0068 71.0386 52.5266 68.8607 52.3081ZM37.0933 23.7757C37.0939 23.7765 37.0901 23.7918 37.0805 23.8193C37.088 23.7887 37.0928 23.7749 37.0933 23.7757Z" fill="black"/>
</svg>
