<svg width="120" height="120" viewBox="0 0 120 120" fill="none" xmlns="http://www.w3.org/2000/svg">
<path fill-rule="evenodd" clip-rule="evenodd" d="M19.62 61.6196C19.62 39.323 34.4683 17.986 59.2317 17.986C63.4627 17.986 66.9651 18.8111 70.2898 19.5943C70.9861 19.7583 71.6745 19.9205 72.3603 20.0729C74.6191 20.5748 76.6607 22.022 77.8102 22.8369C77.8733 22.8817 77.9337 22.9245 77.9913 22.9651C78.6985 23.4642 79.1663 23.7932 79.5735 24.0314C79.6979 24.1042 79.7841 24.1484 79.8359 24.1734C82.1101 24.5821 83.692 26.7048 83.402 29.0249C83.1021 31.4242 80.9139 33.126 78.5146 32.8261C77.0974 32.649 75.9072 32.0311 75.1518 31.5891C74.4039 31.1516 73.6505 30.6193 73.0612 30.203C73.0209 30.1745 72.9813 30.1466 72.9426 30.1192C71.4259 29.0489 70.7877 28.6932 70.4608 28.6206C69.575 28.4237 68.7586 28.2333 67.9903 28.0541C64.7503 27.2985 62.3651 26.7422 59.2317 26.7422C40.6485 26.7422 28.3762 42.695 28.3762 61.6196C28.3762 65.4404 29.639 67.4864 31.5206 69.012C33.7277 70.8014 37.0289 72.0677 41.5926 73.4637C43.5794 74.0714 45.5364 74.7577 47.404 75.4153L47.6211 75.4918C49.4367 76.1312 51.1674 76.7408 52.9009 77.2838C56.5021 78.412 59.8492 79.1634 63.1969 79.1634C65.1158 79.1634 66.9241 78.6478 68.9311 77.7505C70.2657 77.1539 71.3565 76.5635 72.5818 75.9003C73.3032 75.5098 74.0712 75.094 74.9631 74.6369C74.9946 74.522 75.0277 74.3847 75.0623 74.221C75.1485 73.8131 75.2113 73.4107 75.2908 72.901C75.3155 72.7428 75.3418 72.5743 75.3709 72.392C75.4732 71.7516 75.6302 70.8026 75.9239 69.9215C76.6885 67.6276 79.1679 66.3879 81.4618 67.1526C83.7556 67.9172 84.9953 70.3966 84.2307 72.6905C84.1926 72.8049 84.1266 73.0902 84.0175 73.7731C84.0008 73.8778 83.9827 73.9944 83.9632 74.1201C83.8794 74.6599 83.7693 75.3688 83.6293 76.0314C83.455 76.8564 83.1724 77.94 82.6348 78.987C82.0807 80.0663 81.135 81.3366 79.5428 82.1327C78.8905 82.4588 78.105 82.8794 77.2574 83.3332C75.7362 84.1476 74.015 85.0691 72.5047 85.7443C69.8512 86.9305 66.7809 87.9196 63.1969 87.9196C58.5633 87.9196 54.2421 86.8798 50.2833 85.6396C48.3992 85.0494 46.537 84.3934 44.7596 83.7674L44.4957 83.6744C42.6118 83.011 40.8188 82.3836 39.0314 81.8369C34.5507 80.4663 29.6949 78.8043 26.0061 75.8136C21.9919 72.5589 19.62 67.9729 19.62 61.6196Z" fill="black"/>
</svg>
