<svg width="120" height="120" viewBox="0 0 120 120" fill="none" xmlns="http://www.w3.org/2000/svg">
<path fill-rule="evenodd" clip-rule="evenodd" d="M36.1495 27.9434C35.3574 26.8163 34.0472 26.0797 32.565 26.0797C30.1471 26.0797 28.1869 28.0399 28.1869 30.4578V77.6974C28.1869 80.1154 30.1471 82.0755 32.565 82.0755C33.6098 82.0755 34.5691 81.7095 35.3218 81.0988C36.1093 82.2584 37.4388 83.0202 38.9462 83.0202C46.307 83.0202 53.6022 82.1068 60.655 81.0679C62.3307 80.821 63.9864 80.5683 65.6269 80.3178L65.6273 80.3178C70.9848 79.4999 76.18 78.7067 81.3824 78.2252C84.6859 77.9194 87.282 76.4057 88.9494 73.9584C90.4643 71.7348 90.9402 69.1369 91.0843 67.0048C91.232 64.8195 91.058 62.6045 90.8828 60.8345C90.826 60.2596 90.7727 59.756 90.7257 59.3115C90.6094 58.2108 90.5313 57.4725 90.5313 56.9119C90.5313 52.9718 89.4956 48.5273 87.8773 44.9321C86.8375 42.6222 85.5762 41.1595 84.2145 39.9533C83.7311 39.5251 83.2057 39.1058 82.7651 38.7541C82.6637 38.6732 82.5669 38.5959 82.476 38.5229C81.9483 38.0988 81.4591 37.6921 80.9499 37.2072C79.8345 36.1454 78.2431 35.3166 76.8529 34.6851C75.3267 33.9916 73.4915 33.2973 71.5033 32.6299C67.5186 31.2924 62.6675 29.9792 57.9133 28.9403C53.1818 27.9063 48.3861 27.1088 44.543 26.8583C42.6496 26.7349 40.7705 26.7282 39.1707 26.9757C38.3739 27.0989 37.4483 27.3139 36.5625 27.7315C36.4313 27.7934 36.2927 27.8636 36.1495 27.9434ZM36.9431 36.6658V74.7481C37.5434 74.4387 38.2244 74.2641 38.9462 74.2641C45.6342 74.2641 52.4035 73.4327 59.3789 72.4052C60.9481 72.174 62.5345 71.9317 64.1329 71.6876L64.1348 71.6873L64.1349 71.6873C69.5432 70.8612 75.0891 70.0141 80.5753 69.5063C81.4447 69.4258 81.6129 69.1766 81.7046 69.0407L81.7131 69.0282C81.9559 68.6718 82.2486 67.8861 82.348 66.4144C82.4439 64.9958 82.3364 63.3869 82.1692 61.6966C82.1377 61.3783 82.1012 61.0364 82.0635 60.6822C81.9278 59.4095 81.7751 57.978 81.7751 56.9119C81.7751 54.3216 81.0499 51.0969 79.8927 48.5262C79.4468 47.5356 79.0121 47.0424 78.4087 46.5079C78.1088 46.2423 77.8066 46.0008 77.39 45.6678L77.3898 45.6676C77.2675 45.5699 77.1352 45.4642 76.9903 45.3477C76.3936 44.8681 75.6838 44.2836 74.9121 43.5489C74.9162 43.5528 74.9115 43.5496 74.897 43.5397C74.8077 43.4787 74.3453 43.1633 73.2309 42.657C72.0708 42.1299 70.5386 41.5424 68.7169 40.9309C65.0817 39.7107 60.5428 38.4777 56.044 37.4946C51.5225 36.5066 47.2022 35.8064 43.9735 35.5959C42.3885 35.4926 41.2661 35.522 40.5823 35.6182C39.5969 36.495 38.2535 36.8869 36.9431 36.6658Z" fill="black"/>
</svg>
