<svg width="120" height="120" viewBox="0 0 120 120" fill="none" xmlns="http://www.w3.org/2000/svg">
<path fill-rule="evenodd" clip-rule="evenodd" d="M39.233 21.9558C41.651 21.9558 43.6111 23.9159 43.6111 26.3339V31.1922C48.7813 30.732 53.9751 30.1168 59.2519 29.4916L59.2692 29.4895C69.7827 28.2438 80.6224 26.9594 91.7701 26.9594C94.1881 26.9594 96.1482 28.9195 96.1482 31.3375C96.1482 33.7554 94.1881 35.7156 91.7701 35.7156C81.2159 35.7156 70.877 36.9315 60.2822 38.1869L60.0613 38.2131L60.0612 38.2131C54.6466 38.8547 49.1619 39.5046 43.6111 39.9817V50.1523L75.7108 49.3627C78.128 49.3033 80.1358 51.2146 80.1952 53.6318C80.2547 56.0491 78.3433 58.0568 75.9261 58.1163L43.6111 58.9111V74.1761C43.851 74.3264 44.3089 74.5545 45.0973 74.7885C47.2886 75.4386 50.6036 75.7317 54.5864 75.7434C58.482 75.7549 62.6466 75.5017 66.383 75.236C67.0849 75.1861 67.782 75.1348 68.4649 75.0845L68.4651 75.0845L68.4659 75.0845C71.2748 74.8777 73.8429 74.6886 75.5086 74.6886C77.9266 74.6886 79.8867 76.6488 79.8867 79.0667C79.8867 81.4847 77.9266 83.4448 75.5086 83.4448C74.197 83.4448 72.0885 83.5993 69.3295 83.8015C68.5991 83.8551 67.823 83.9119 67.0041 83.9702C63.2395 84.2379 58.8014 84.5121 54.5606 84.4996C50.4069 84.4873 46.0517 84.205 42.6068 83.183C40.8837 82.6718 39.0317 81.8752 37.5479 80.5323C35.9336 79.0712 34.8549 77.0344 34.8549 74.5597V59.1265L27.6686 59.3032C25.2514 59.3627 23.2436 57.4513 23.1842 55.0341C23.1247 52.6169 25.0361 50.6092 27.4533 50.5497L34.8549 50.3676V40.5624C32.5721 40.6628 30.2788 40.7191 27.975 40.7191C25.5571 40.7191 23.5969 38.759 23.5969 36.341C23.5969 33.923 25.5571 31.9629 27.975 31.9629C30.2737 31.9629 32.5653 31.9037 34.8549 31.7978V26.3339C34.8549 23.9159 36.815 21.9558 39.233 21.9558Z" fill="black"/>
</svg>
