<svg width="120" height="120" viewBox="0 0 120 120" fill="none" xmlns="http://www.w3.org/2000/svg">
<path fill-rule="evenodd" clip-rule="evenodd" d="M62.0677 27.1161C64.6933 27.1161 67.0709 26.42 68.8177 25.9086L68.9911 25.8578C70.9412 25.2879 72.1913 24.9512 73.4334 24.9512C75.8513 24.9512 77.8115 22.9911 77.8115 20.5731C77.8115 18.1551 75.8513 16.195 73.4334 16.195C70.8309 16.195 68.4648 16.888 66.7268 17.397L66.5348 17.4533C64.5923 18.021 63.329 18.3599 62.0677 18.3599H52.8669C50.5328 18.3599 48.2559 18.3924 46.0139 18.4244C41.2562 18.4923 36.6551 18.558 31.9954 18.3062C32.0019 18.3065 31.9996 18.3062 31.9867 18.3046C31.9453 18.2993 31.7942 18.28 31.4694 18.223C31.2278 18.1805 30.9907 18.1359 30.7163 18.0843C30.5266 18.0486 30.319 18.0096 30.08 17.9657C29.0568 17.7775 27.6198 17.528 26.2667 17.4844C25.5885 17.4626 24.7357 17.4834 23.8635 17.6733C23.0345 17.8537 21.7249 18.2866 20.6643 19.451C19.4603 20.7729 19.1385 22.4052 19.299 23.8175C19.4416 25.0725 19.9526 26.1783 20.4604 27.0488C21.467 28.7744 22.3184 30.0708 23.0243 31.1459C24.909 34.016 25.7574 35.308 25.7574 38.9747V45.5685C23.8875 46.067 22.51 47.7722 22.51 49.7992C22.51 51.8261 23.8875 53.5313 25.7574 54.0298V85.52C25.7574 87.938 27.7175 89.8981 30.1355 89.8981C32.5534 89.8981 34.5136 87.938 34.5136 85.52V54.1772H60.444C62.862 54.1772 64.8221 52.2171 64.8221 49.7992C64.8221 47.3812 62.862 45.4211 60.444 45.4211H34.5136V38.9747C34.5136 33.521 32.7563 30.0164 30.8276 26.9835C31.0559 27.0129 31.2927 27.0371 31.5228 27.0496C36.4849 27.3178 41.5913 27.2459 46.5041 27.1766C48.6724 27.1461 50.803 27.1161 52.8669 27.1161H62.0677Z" fill="black"/>
</svg>
