<svg width="120" height="120" viewBox="0 0 120 120" fill="none" xmlns="http://www.w3.org/2000/svg">
<path fill-rule="evenodd" clip-rule="evenodd" d="M41.9857 21.7172C48.5368 17.8586 56.4076 15.5392 64.5106 17.653C68.7076 18.7479 73.0957 21.435 76.527 24.7744C79.9212 28.0775 82.953 32.5866 83.4574 37.6303C83.698 40.0362 81.9426 42.1817 79.5366 42.4223C77.1307 42.6629 74.9852 40.9075 74.7446 38.5016C74.5248 36.3031 73.0314 33.5907 70.4202 31.0495C67.8461 28.5444 64.7486 26.7643 62.3004 26.1256C57.2137 24.7987 51.775 26.1134 46.4295 29.2619C41.0887 32.4076 36.258 37.159 32.7507 41.8354C30.7347 44.5234 29.6616 48.9093 29.8536 53.8673C30.0441 58.7895 31.455 63.4487 33.4629 66.3833C35.1355 68.8279 38.1621 72.1665 41.6478 75.0126C45.2407 77.9463 48.6929 79.8378 51.2021 80.2239C58.0835 81.2825 65.3846 78.717 68.6342 73.4212C69.0569 72.7324 69.4615 72.0934 69.8475 71.4838C70.8021 69.9763 71.6423 68.6492 72.3584 67.1966C73.2044 65.4804 73.6407 64.012 73.659 62.6254C73.2317 62.5212 72.5097 62.4266 71.4116 62.4441C69.0194 62.4821 66.3668 62.9744 63.9591 63.4213C63.2518 63.5525 62.5656 63.6799 61.9134 63.7906C55.1427 64.9404 48.9219 65.1754 42.2978 65.1754C39.8798 65.1754 37.9197 63.2153 37.9197 60.7973C37.9197 58.3794 39.8798 56.4192 42.2978 56.4192C48.7149 56.4192 54.3779 56.1887 60.4475 55.158C60.8535 55.0891 61.3526 54.9955 61.9223 54.8887C64.3466 54.4342 68.0474 53.7403 71.2724 53.689C73.2575 53.6574 75.705 53.8365 77.8353 54.8596C78.9641 55.4017 80.0984 56.2264 80.9695 57.4559C81.8537 58.7039 82.3017 60.1372 82.3891 61.6227C82.6022 65.246 81.5154 68.4243 80.2122 71.0681C79.2723 72.9747 78.0562 74.8945 77.0244 76.5232C76.6909 77.0496 76.3767 77.5456 76.0973 78.0009C70.4892 87.1401 59.1486 90.3056 49.8707 88.8782C44.9953 88.1282 40.0441 85.0074 36.1099 81.7951C32.0683 78.4951 28.4437 74.554 26.2363 71.3278C23.0707 66.7011 21.3407 60.3236 21.1039 54.206C20.8685 48.1243 22.0815 41.4673 25.7458 36.5816C29.7767 31.2071 35.4297 25.5786 41.9857 21.7172Z" fill="black"/>
</svg>
