<svg width="120" height="120" viewBox="0 0 120 120" fill="none" xmlns="http://www.w3.org/2000/svg">
<path fill-rule="evenodd" clip-rule="evenodd" d="M34.8234 15.6979C37.2414 15.6979 39.2015 17.658 39.2015 20.076C39.2015 28.644 39.4295 39.7908 40.3684 51.0236C40.8898 50.8045 41.4625 50.6834 42.0636 50.6834H81.2184L80.482 21.4371C80.4211 19.0199 82.3313 17.011 84.7485 16.9502C87.1657 16.8893 89.1746 18.7995 89.2354 21.2167L90.8207 84.1774C90.8816 86.5946 88.9714 88.6034 86.5542 88.6643C84.137 88.7252 82.1282 86.815 82.0673 84.3978L81.4389 59.4395H42.0636C41.77 59.4395 41.4832 59.4106 41.2058 59.3556C41.6096 62.6236 42.3201 65.7238 43.0814 69.0451L43.0814 69.0451L43.0815 69.0455L43.0819 69.0473C43.2567 69.8101 43.4342 70.5845 43.6113 71.3753C44.5577 75.6019 45.4559 80.1723 45.4559 85.1219C45.4559 87.5399 43.4958 89.5 41.0778 89.5C38.6599 89.5 36.6997 87.5399 36.6997 85.1219C36.6997 81.1905 35.989 77.4075 35.0667 73.2885C34.9109 72.5926 34.7476 71.8821 34.5813 71.1582L34.5813 71.1582C33.7904 67.716 32.9304 63.973 32.4731 60.0753C30.7972 45.7925 30.4453 30.8321 30.4453 20.076C30.4453 17.658 32.4055 15.6979 34.8234 15.6979Z" fill="black"/>
</svg>
