<svg width="120" height="120" viewBox="0 0 120 120" fill="none" xmlns="http://www.w3.org/2000/svg">
<path fill-rule="evenodd" clip-rule="evenodd" d="M22.1679 19C19.75 19 17.7898 20.9601 17.7898 23.3781C17.7898 25.796 19.75 27.7562 22.1679 27.7562H50.6657V78.4454C50.6657 81.0571 50.1736 83.7857 49.1894 85.6877C48.2926 87.4206 47.2911 88.0396 45.9115 88.0396C30.6829 88.0396 19.9707 75.4884 19.9707 61.1855C19.9707 58.7675 18.0105 56.8074 15.5926 56.8074C13.1746 56.8074 11.2145 58.7675 11.2145 61.1855C11.2145 79.6838 25.2304 96.7958 45.9115 96.7958C51.4655 96.7958 55.0301 93.453 56.966 89.712C58.8145 86.14 59.4219 81.8824 59.4219 78.4454V27.7562H92.8513C95.2693 27.7562 97.2294 25.796 97.2294 23.3781C97.2294 20.9601 95.2693 19 92.8513 19H22.1679Z" fill="black"/>
</svg>
