<svg width="120" height="120" viewBox="0 0 120 120" fill="none" xmlns="http://www.w3.org/2000/svg">
<path fill-rule="evenodd" clip-rule="evenodd" d="M38.7349 8.74854C41.1528 8.74854 43.113 10.7087 43.113 13.1266V49.0203C43.1267 49.0101 43.1404 49 43.1541 48.9898C45.9441 46.9241 48.6509 44.7374 51.3883 42.5261L51.3925 42.5227C52.0953 41.9549 52.8002 41.3855 53.509 40.8161C56.923 38.0736 60.4148 35.3431 63.9263 33.0933C67.9648 30.5059 72.0162 28.3296 75.8421 26.2744L76.2905 26.0335C80.2964 23.881 84.0409 21.8507 87.5982 19.4871C89.6122 18.149 92.3296 18.6969 93.6677 20.7108C95.0058 22.7248 94.4579 25.4421 92.444 26.7803C88.497 29.4027 84.4047 31.6136 80.4351 33.7467L80.081 33.9369C76.187 36.029 72.3991 38.064 68.65 40.4661C65.5692 42.4399 62.3956 44.9089 58.9928 47.6425C58.3247 48.1791 57.6469 48.7268 56.9604 49.2814L56.9603 49.2815C54.9627 50.8954 52.892 52.5684 50.7772 54.2008C57.0766 56.4194 62.9394 59.5799 68.396 62.5214C69.8521 63.3063 71.2792 64.0756 72.678 64.8073C76.6432 66.8814 80.823 68.3946 85.2437 69.79C86.8606 70.3004 88.575 70.8133 90.3281 71.3378L90.3297 71.3383L90.33 71.3384C93.1807 72.1913 96.1336 73.0748 98.9358 74.0275C101.225 74.8059 102.45 77.2927 101.671 79.5819C100.893 81.8712 98.4064 83.096 96.1171 82.3176C93.4076 81.3964 90.8013 80.6185 88.1133 79.8161L88.1128 79.816L88.1119 79.8157C86.3311 79.2841 84.5144 78.7419 82.608 78.1401C77.9976 76.6848 73.2542 74.9904 68.6196 72.5661C67.0708 71.756 65.5526 70.9438 64.0574 70.1439L64.0574 70.1439L64.0573 70.1438C56.827 66.2758 50.1338 62.6951 43.113 61.0238V89.4305C43.113 91.8485 41.1528 93.8086 38.7349 93.8086C36.3169 93.8086 34.3568 91.8485 34.3568 89.4305V64.4398C30.7443 66.0003 26.9301 67.1176 22.9076 67.5185C20.5015 67.7583 18.3567 66.0022 18.1169 63.5961C17.8771 61.1901 19.6332 59.0452 22.0392 58.8054C24.9655 58.5138 27.8349 57.701 30.6831 56.4888C30.6313 56.2194 30.6042 55.9412 30.6042 55.6567C30.6042 53.4511 32.2351 51.6264 34.3568 51.3229V13.1266C34.3568 10.7087 36.3169 8.74854 38.7349 8.74854Z" fill="black"/>
</svg>
