<svg width="120" height="120" viewBox="0 0 120 120" fill="none" xmlns="http://www.w3.org/2000/svg">
<path fill-rule="evenodd" clip-rule="evenodd" d="M54.4661 16.0065C56.8841 16.0065 58.8442 17.9666 58.8442 20.3846C58.8442 28.2715 57.4988 35.3936 55.781 42.2436C55.0427 45.1877 54.2243 48.123 53.4132 51.032C53.2851 51.4915 53.1572 51.9502 53.0298 52.4083C52.089 55.7912 51.1677 59.1667 50.3521 62.6582C49.9775 64.2621 48.8667 66.8427 47.8505 69.2036C47.8126 69.2919 47.7747 69.3798 47.7371 69.4673L47.6327 69.7098C46.5049 72.3309 45.2852 75.1653 44.3542 77.7572C44.0519 78.5989 43.7918 79.3831 43.5812 80.0979C49.6099 78.5514 55.8475 78.1311 61.881 78.0957C65.4277 78.0748 68.9756 78.1881 72.4004 78.3031C72.5658 78.3086 72.731 78.3142 72.8958 78.3197C76.1716 78.43 79.3246 78.536 82.3906 78.536C84.8085 78.536 86.7687 80.4962 86.7687 82.9141C86.7687 85.3321 84.8085 87.2922 82.3906 87.2922C79.1724 87.2922 75.8831 87.1815 72.6475 87.0725C72.467 87.0665 72.2867 87.0604 72.1066 87.0544C68.6683 86.939 65.2832 86.832 61.9324 86.8517C55.2126 86.8911 48.9153 87.4442 43.2178 89.3204C41.7073 89.8178 39.316 90.2663 37.1231 88.8963C34.8213 87.4582 34.3351 85.0459 34.2498 83.6519C34.159 82.1658 34.4222 80.6042 34.7494 79.2356C35.0905 77.8089 35.577 76.2908 36.1136 74.7971C37.1382 71.9447 38.4526 68.8905 39.5511 66.3382C39.5991 66.2268 39.6466 66.1163 39.6937 66.0069C40.9303 63.1326 41.6624 61.3644 41.8255 60.6664C42.6858 56.9835 43.6496 53.4574 44.5938 50.0622C44.7239 49.5944 44.8534 49.1297 44.9823 48.6675C45.7953 45.751 46.5796 42.9376 47.2878 40.1136C48.9207 33.6026 50.088 27.2602 50.088 20.3846C50.088 17.9666 52.0482 16.0065 54.4661 16.0065ZM40.2199 81.0722C40.2209 81.0707 40.2432 81.0653 40.2843 81.0605C40.2395 81.0713 40.219 81.0737 40.2199 81.0722ZM42.9916 83.1439C42.9938 83.1587 42.9944 83.1667 42.9942 83.167C42.994 83.1673 42.993 83.1599 42.9916 83.1439Z" fill="black"/>
</svg>
