<svg width="120" height="120" viewBox="0 0 120 120" fill="none" xmlns="http://www.w3.org/2000/svg">
<path fill-rule="evenodd" clip-rule="evenodd" d="M24.6736 22.564C24.6867 22.5214 24.6881 22.5286 24.6709 22.5728C24.6718 22.5698 24.6727 22.5669 24.6736 22.564ZM20.1926 23.9831C20.1685 23.9668 20.1563 23.9569 20.1562 23.956C20.1562 23.9551 20.1682 23.9632 20.1926 23.9831ZM24.4585 29.7269V77.4131C24.4585 79.831 22.4983 81.7912 20.0804 81.7912C17.6624 81.7912 15.7023 79.831 15.7023 77.4131V28.0402C15.7023 27.8174 15.6999 27.5447 15.6972 27.2392C15.6901 26.4369 15.681 25.4081 15.7082 24.4599C15.7445 23.1972 15.8489 21.4718 16.3037 19.9919C16.5247 19.2729 16.9703 18.1184 17.9527 17.1512C19.1559 15.9666 20.8654 15.3712 22.6759 15.7059C24.1546 15.9792 25.2835 16.7981 26.0219 17.4478C26.8218 18.1517 27.5931 19.0439 28.3488 20.0516C29.8937 22.1114 31.6337 24.6997 33.4207 27.358C34.4813 28.9358 35.5586 30.5382 36.6214 32.0694C39.6118 36.3776 42.712 40.4729 45.9236 43.5453C49.1937 46.6735 52.0681 48.2433 54.5674 48.4497C56.7793 48.6323 59.7118 47.8166 63.4381 43.6604C67.748 38.8532 70.8122 33.2873 73.5615 27.025C73.6813 26.7522 73.8073 26.4068 74.0046 25.8661C74.0666 25.6961 74.1357 25.5068 74.2139 25.2943C74.5021 24.5108 74.8777 23.521 75.3473 22.5425C75.8078 21.5828 76.4462 20.4451 77.3369 19.4397C78.2384 18.422 79.5872 17.3317 81.461 16.9153C82.177 16.7562 82.6656 16.6213 83.186 16.4776C83.5101 16.3881 83.8465 16.2952 84.2578 16.191C84.2804 16.1853 84.3045 16.1791 84.3302 16.1725C84.9964 16.0021 86.6635 15.5756 88.3582 16.0776C90.8171 16.8059 91.8395 18.8209 92.2571 20.1847C92.6393 21.4329 92.7877 22.9549 92.8862 24.4817C94.1844 44.6035 97.1099 65.4419 103.32 84.0712C104.084 86.3651 102.845 88.8445 100.551 89.6091C98.2568 90.3737 95.7774 89.134 95.0128 86.8402C88.4952 67.2874 85.4932 45.7077 84.163 25.2745C84.0441 25.3038 83.9221 25.3334 83.797 25.3629C83.6613 25.545 83.4709 25.8529 83.2415 26.331C82.9616 26.914 82.7038 27.5775 82.4317 28.3173C82.3885 28.4346 82.3425 28.5611 82.2942 28.6939C82.0809 29.2805 81.8236 29.9879 81.5791 30.5449C78.6486 37.2199 75.1406 43.7246 69.9576 49.5056C65.0201 55.0128 59.5969 57.651 53.8468 57.1762C48.3841 56.7251 43.69 53.5261 39.8708 49.8725C35.9932 46.1631 32.4832 41.4636 29.4282 37.0623C28.1709 35.251 27.0174 33.5325 25.9361 31.9218C25.4287 31.166 24.9373 30.4338 24.4585 29.7269ZM83.8845 22.7482C83.885 22.7496 83.8855 22.7514 83.8861 22.7534C83.8827 22.7432 83.8824 22.7411 83.8845 22.7482Z" fill="black"/>
</svg>
