<svg width="120" height="120" viewBox="0 0 120 120" fill="none" xmlns="http://www.w3.org/2000/svg">
<path fill-rule="evenodd" clip-rule="evenodd" d="M78.8278 9.15495C80.8397 7.81371 83.5579 8.35736 84.8992 10.3692C88.5404 15.8311 89.5928 22.078 90.0915 27.7572C90.275 29.8468 90.3864 31.7996 90.4927 33.663C90.6955 37.2185 90.8798 40.4486 91.5109 43.683C91.8721 45.5339 92.2176 47.3604 92.5596 49.1681C93.8026 55.739 94.9983 62.0601 96.725 68.391C96.8342 68.7914 96.976 69.6791 97.0784 70.3818C97.2038 71.2419 97.3486 72.3774 97.4324 73.4898C97.506 74.4679 97.5749 75.8921 97.3557 77.0953C97.2943 77.432 97.1859 77.898 96.9744 78.3979C96.7786 78.8605 96.3615 79.672 95.5078 80.3507C94.5101 81.1441 93.2225 81.5053 91.9237 81.3134C90.8099 81.1488 90.0164 80.6285 89.5899 80.2968C86.8686 78.1803 84.7212 75.0307 83.0544 72.3475C82.3316 71.1839 81.7059 70.1246 81.1311 69.1516C80.2145 67.6001 79.4276 66.2679 78.5833 65.0819C71.8191 55.5798 61.3469 49.2292 50.4499 42.6208C48.4867 41.4303 46.5098 40.2314 44.5382 39.0042C44.3225 38.8699 44.021 38.6767 43.6484 38.4379C41.6547 37.16 37.6237 34.5762 33.7811 32.7253C32.5625 32.1383 31.52 31.7054 30.6765 31.4129V89.2028C30.6765 91.6207 28.7163 93.5808 26.2984 93.5808C23.8804 93.5808 21.9203 91.6207 21.9203 89.2028V28.883C21.9203 27.0357 22.5422 24.8781 24.5145 23.4487C26.2511 22.19 28.2263 22.1146 29.5281 22.22C32.1444 22.432 35.1255 23.6538 37.581 24.8366C41.9981 26.9643 46.6613 29.9631 48.5094 31.1515C48.8034 31.3406 49.0262 31.4838 49.1653 31.5705C50.9322 32.6702 52.7741 33.7819 54.6602 34.9203C65.5018 41.4638 77.8045 48.8893 85.7167 60.0039C85.734 60.0283 85.7514 60.0528 85.7688 60.0775C85.1097 56.9043 84.5118 53.7414 83.92 50.611C83.5869 48.849 83.2558 47.0973 82.9168 45.3599C82.1736 41.5511 81.9247 37.2866 81.6971 33.3867C81.5969 31.6718 81.501 30.0273 81.3689 28.5231C80.9015 23.2008 79.991 18.7924 77.6136 15.2263C76.2723 13.2144 76.816 10.4962 78.8278 9.15495ZM30.6765 28.883C30.6765 28.8812 30.6765 28.8814 30.6765 28.883ZM28.7098 30.9417C28.6799 30.9446 28.6635 30.9444 28.6628 30.9435C28.6621 30.9427 28.677 30.9412 28.7098 30.9417Z" fill="black"/>
</svg>
