<svg width="120" height="120" viewBox="0 0 120 120" fill="none" xmlns="http://www.w3.org/2000/svg">
<path fill-rule="evenodd" clip-rule="evenodd" d="M68.9059 19.9781C68.9895 19.5522 69.0106 19.1065 68.9604 18.6523C68.6946 16.249 66.5308 14.5163 64.1275 14.7821C63.4825 14.8534 62.8585 14.9573 62.2547 15.0911C60.1459 14.2115 57.687 15.1072 56.6538 17.1828C56.5853 17.3205 56.5247 17.4601 56.4718 17.601C51.2395 21.1697 48.1729 27.4007 46.1401 32.9085C44.7247 36.7437 43.6072 40.8041 42.618 44.3989C42.5499 44.6462 42.4824 44.8914 42.4155 45.1342C41.3342 49.0562 40.4353 52.1835 39.4394 54.3647C35.1701 63.715 36.4394 72.8441 41.4731 79.5584C46.4222 86.1599 54.7137 90.0428 63.8298 89.7975C69.3659 89.6486 73.5406 87.1358 76.4462 83.3869C79.2141 79.8155 80.7576 75.2407 81.6692 70.7789C83.2436 63.0726 83.1721 54.3056 83.1253 48.5571C83.1181 47.6753 83.1115 46.8646 83.1115 46.1396C83.1115 43.2491 82.1774 40.1369 80.9408 37.268C79.6729 34.3264 77.9352 31.295 75.9935 28.4691C73.9302 25.4661 71.4734 22.4609 68.9059 19.9781ZM61.3243 24.917C58.6012 26.8041 56.3673 30.4872 54.3547 35.9403C53.0734 39.4121 52.0482 43.1348 51.0369 46.8074C50.9768 47.0256 50.9168 47.2436 50.8568 47.4613C49.8281 51.1927 48.7494 55.0562 47.4046 58.0016C44.402 64.5775 45.459 70.2777 48.479 74.306C51.5836 78.4471 57.0731 81.22 63.5943 81.0445C66.2674 80.9726 68.075 79.8941 69.5253 78.0229C71.113 75.9743 72.2987 72.9003 73.0902 69.0262C74.4621 62.3112 74.4084 54.601 74.3679 48.7689C74.3614 47.8411 74.3553 46.9608 74.3553 46.1396C74.3553 44.9662 73.93 43.124 72.8998 40.7338C71.9009 38.4164 70.4645 35.8842 68.7767 33.4278C66.3281 29.8641 63.6265 26.8536 61.3243 24.917Z" fill="black"/>
</svg>
