<svg width="120" height="120" viewBox="0 0 120 120" fill="none" xmlns="http://www.w3.org/2000/svg">
<path fill-rule="evenodd" clip-rule="evenodd" d="M69.7236 25.6038C63.5442 22.0563 57.5237 20.1607 52.0769 22.2691C51.041 22.6701 50.3223 22.9696 49.7712 23.2538C49.2353 23.5303 49.0276 23.7087 48.9526 23.7851L48.9521 23.7856C48.9153 23.8231 48.882 23.857 48.8345 24.0008C48.7699 24.1965 48.6742 24.6289 48.6742 25.4727C48.6742 29.9145 48.6258 34.3152 48.5776 38.6901C48.544 41.7404 48.5106 44.7782 48.4938 47.8085C48.5151 47.8072 48.5365 47.8059 48.5579 47.8046C61.3593 47.0314 73.5873 44.644 84.8234 39.1455C85.3995 38.8636 85.7033 38.6334 85.8513 38.4991C85.6307 37.7853 84.706 36.3675 82.5516 34.4022C78.3096 30.5326 72.0408 26.934 69.754 25.6212L69.7236 25.6038ZM48.5068 56.5834C48.6911 56.5699 48.8839 56.5571 49.0859 56.5449C62.6064 55.7282 76.0674 53.1787 88.6722 47.0104C90.6626 46.0364 92.4435 44.6799 93.553 42.7557C94.7209 40.7304 94.8616 38.5686 94.4085 36.6207C93.5999 33.1445 90.8606 30.1298 88.4527 27.9332C83.488 23.4045 76.5494 19.4246 74.2454 18.1031C74.1884 18.0704 74.1342 18.0393 74.083 18.0099C67.4395 14.196 58.2823 10.4777 48.916 14.1034C46.9766 14.8541 44.5021 15.8199 42.7049 17.6502C40.5936 19.8004 39.918 22.5074 39.918 25.4727C39.918 29.7053 39.8711 33.9932 39.8238 38.3113C39.7855 41.8081 39.747 45.3246 39.733 48.8478C39.1205 48.714 38.2273 48.466 36.8931 48.0213C34.5993 47.2567 32.1199 48.4964 31.3553 50.7903C30.5906 53.0841 31.8303 55.5635 34.1242 56.3282C36.4615 57.1072 38.1911 57.5646 39.764 57.7011C39.8041 60.8749 39.8808 64.0449 40.0123 67.2015C40.018 67.3376 40.0258 67.6417 40.0371 68.0787C40.0844 69.9215 40.1926 74.1284 40.457 78.0789C40.6212 80.5324 40.8562 83.0876 41.2079 85.1029C41.3782 86.079 41.6123 87.1505 41.9663 88.0757C42.138 88.5246 42.4251 89.1753 42.905 89.8004C43.351 90.3814 44.4071 91.5057 46.197 91.7295C48.5963 92.0294 50.7844 90.3275 51.0843 87.9282C51.2472 86.6253 50.8197 85.3846 50.0108 84.4748C49.9594 84.259 49.8987 83.9702 49.8337 83.5977C49.5643 82.0538 49.3529 79.8737 49.1936 77.4942C48.947 73.8093 48.8508 70.1259 48.7986 68.1271C48.7831 67.5342 48.7715 67.0895 48.7609 66.837C48.6185 63.4173 48.5417 60.002 48.5068 56.5834ZM50.1443 84.9466C50.1437 84.945 50.1431 84.9434 50.1424 84.9418C50.1532 84.9665 50.1532 84.9699 50.1443 84.9466Z" fill="black"/>
</svg>
