<svg width="120" height="120" viewBox="0 0 120 120" fill="none" xmlns="http://www.w3.org/2000/svg">
<path fill-rule="evenodd" clip-rule="evenodd" d="M61.3514 6.35354C62.4327 4.19086 65.0625 3.31426 67.2252 4.3956C70.0626 5.81429 72.503 8.03303 74.4943 9.99583C75.2555 10.7462 75.9388 11.444 76.5787 12.0975C77.7855 13.3299 78.8377 14.4045 79.9665 15.3758C80.7343 16.0365 81.5074 16.6863 82.2813 17.3368C86.7604 21.1016 91.2677 24.8901 94.9473 30.9506C101.514 41.7669 108.66 54.8919 102.27 70.1312C99.4053 76.9617 94.6132 81.3091 88.7899 83.6051C83.1145 85.8427 76.7291 86.0348 70.5875 85.1938C58.3499 83.518 45.7234 77.5518 38.1698 72.4133C27.477 65.1393 17.2654 55.9759 18.4212 40.0515C18.858 34.0336 20.3878 28.9896 23.5342 23.7456C28.4087 15.6214 37.0035 12.1534 45.149 10.3915C49.28 9.49791 53.5254 8.99481 57.4644 8.60755C58.647 8.49128 59.7871 8.38651 60.8882 8.2859C60.8916 7.63509 61.0406 6.97503 61.3514 6.35354ZM68.4423 16.3255C66.3354 16.5813 64.0462 16.7906 61.7456 17.0009C60.5999 17.1056 59.4514 17.2106 58.3211 17.3217C54.4692 17.7004 50.6269 18.1653 47.0002 18.9497C39.6302 20.5439 34.0294 23.2726 31.0426 28.2506C28.6313 32.2693 27.496 35.9783 27.1544 40.6854C26.3678 51.5231 32.7707 58.1503 43.0948 65.1735C49.8204 69.7487 61.1866 75.0686 71.7755 76.5186C77.0471 77.2405 81.7834 76.9554 85.5782 75.4592C89.2252 74.0213 92.2518 71.3782 94.1948 66.745C98.7053 55.9891 94.1524 46.5133 87.4626 35.4949C84.582 30.7503 81.2596 27.9438 76.8082 24.1836C75.9962 23.4977 75.1467 22.78 74.2554 22.0131C72.8447 20.7993 71.3413 19.2667 69.9815 17.8805C69.4408 17.3293 68.9228 16.8012 68.4423 16.3255Z" fill="black"/>
<path fill-rule="evenodd" clip-rule="evenodd" d="M80.2898 50.5206C80.9427 49.5324 81.1948 48.2841 80.8849 47.0445C80.2984 44.6988 77.9214 43.2725 75.5757 43.859C74.3207 44.1727 73.1604 44.9094 72.3586 46.075C71.621 47.1472 71.3945 48.2785 71.3366 49.1184C71.2271 50.7046 71.6514 52.3122 72.0675 53.5491C72.9485 56.1681 74.5705 59.3007 76.2193 62.1762C79.55 67.9849 83.6346 73.8403 84.3091 74.7112C86.1358 77.0701 88.0602 79.3128 89.9116 81.4615C89.9987 81.5625 90.0856 81.6634 90.1723 81.7641C91.9522 83.8294 93.6578 85.8085 95.27 87.8506C95.4679 88.1013 95.6965 88.4273 96.0237 88.9042C96.0523 88.9458 96.0816 88.9886 96.1116 89.0324C96.3962 89.4476 96.746 89.958 97.1151 90.4529C97.8542 91.4443 99.1248 93.0251 100.973 93.949C103.135 95.0303 105.765 94.1538 106.846 91.9911C107.925 89.8348 107.056 87.2143 104.908 86.127C104.915 86.1308 104.92 86.1326 104.92 86.1319C104.924 86.1259 104.671 85.9375 104.135 85.219C103.875 84.8712 103.624 84.5039 103.322 84.0641C103.296 84.0265 103.27 83.9884 103.243 83.9496C102.935 83.4998 102.549 82.9392 102.143 82.4249C100.41 80.23 98.5907 78.1193 96.841 76.0893C96.7421 75.9746 96.6434 75.8601 96.545 75.7459C94.6825 73.5842 92.8998 71.5037 91.2321 69.3501C91.2324 69.3505 91.2323 69.3503 91.2317 69.3495C91.2279 69.3445 91.207 69.3169 91.1635 69.2575C91.1169 69.1938 91.0555 69.109 90.9794 69.0025C90.8275 68.7899 90.6276 68.5061 90.3874 68.1599C89.9072 67.468 89.2769 66.5426 88.5616 65.462C87.1263 63.2938 85.3758 60.542 83.8153 57.8207C82.2187 55.0362 80.9598 52.5206 80.3667 50.7574C80.3384 50.6731 80.3128 50.5943 80.2898 50.5206Z" fill="black"/>
</svg>
