<svg width="120" height="120" viewBox="0 0 120 120" fill="none" xmlns="http://www.w3.org/2000/svg">
<path fill-rule="evenodd" clip-rule="evenodd" d="M70.7786 21.1036C63.3662 18.5929 53.1249 18.7669 44.5578 19.8774C44.147 19.9307 43.4997 19.9863 42.8648 20.0408C42.5532 20.0676 42.2447 20.0941 41.9685 20.12C40.9771 20.2128 39.9487 20.3304 39.0259 20.5023C38.9403 20.5182 38.8581 20.5342 38.7791 20.5502C38.9319 21.2173 39.0955 22.1161 39.0955 23.1156V46.4015C43.5401 45.3791 47.982 44.6138 52.5251 44.1182C59.7432 41.0006 66.8288 37.5583 72.18 34.339C74.9356 32.6811 77.0909 31.1655 78.5452 29.8663C79.2707 29.2181 79.7278 28.7065 79.9887 28.3418C80.0512 28.2544 80.095 28.1859 80.1248 28.1358C80.1064 27.9872 80.0286 27.7015 79.7398 27.2417C79.2955 26.5346 78.5176 25.6967 77.4131 24.8122C75.1852 23.0281 72.3794 21.6458 70.7786 21.1036ZM72.0268 44.4913C73.6687 43.6065 75.2336 42.7205 76.6939 41.842C79.6634 40.0555 82.3415 38.2162 84.3788 36.3962C85.3989 35.4848 86.3521 34.4959 87.1096 33.4372C87.8481 32.4052 88.5704 31.0717 88.7952 29.4987C89.1799 26.8058 88.3107 24.4246 87.1542 22.5837C86.0092 20.7612 84.4368 19.2191 82.8864 17.9775C79.8045 15.5094 76.0821 13.6551 73.5876 12.8102C64.2379 9.64338 52.369 10.0354 43.4322 11.1939C43.3653 11.2025 43.1731 11.219 42.8901 11.2433C41.7704 11.3394 39.2306 11.5573 37.4223 11.8942C36.1784 12.1259 34.6145 12.5041 33.2583 13.2085C32.0377 13.8424 29.6287 15.4966 29.6287 18.694C29.6287 20.0582 29.9232 21.224 30.0944 21.9016C30.102 21.9315 30.1093 21.9605 30.1163 21.9885C30.3104 22.7599 30.3394 22.9512 30.3394 23.1156V48.7348C30.1215 48.8004 29.9036 48.8666 29.6854 48.9334C29.6264 48.9514 29.5278 48.9795 29.3961 49.0169C28.5615 49.254 26.396 49.8694 24.5196 50.7324C23.4491 51.2248 22.0474 51.9789 20.9337 53.096C19.7597 54.2736 18.3719 56.4779 19.1773 59.2968C19.7711 61.3751 21.4567 62.1891 22.2261 62.4505C23.0211 62.7206 23.7606 62.752 24.1906 62.7529C25.1121 62.7548 26.1299 62.5969 27.0579 62.4118C28.0123 62.2213 29.118 61.95 30.3394 61.6129V79.8075C30.3394 82.2255 32.2995 84.1856 34.7174 84.1856C37.1354 84.1856 39.0955 82.2255 39.0955 79.8075V58.8065C43.8417 57.1328 49.2843 55.0205 54.7501 52.6916C57.7402 52.4028 60.7775 52.2406 63.8996 52.2073C67.0485 52.1738 68.1604 52.331 68.7689 52.6214C68.7719 52.6228 68.7751 52.6243 68.7784 52.6259C68.9657 52.7147 69.5821 53.0067 70.3668 55.3172C71.8649 59.7283 73.8407 65.4525 77.6233 69.8656C78.5245 70.9169 79.5238 71.9298 80.3847 72.8024C80.6374 73.0585 80.8782 73.3026 81.101 73.5319C82.1615 74.6233 82.9976 75.5564 83.6608 76.5511C85.002 78.5629 87.7202 79.1066 89.7321 77.7654C91.7439 76.4241 92.2876 73.7059 90.9463 71.694C89.8235 70.0097 88.5287 68.6113 87.3811 67.4302C87.0571 67.0967 86.752 66.7872 86.4613 66.4923C85.6522 65.6717 84.9547 64.9642 84.2715 64.1671C81.7551 61.2312 80.23 57.1305 78.6579 52.5014C77.486 49.0508 75.7285 46.2407 72.5406 44.7192C72.3711 44.6383 72.1997 44.5624 72.0268 44.4913Z" fill="black"/>
</svg>
