<svg width="120" height="120" viewBox="0 0 120 120" fill="none" xmlns="http://www.w3.org/2000/svg">
<path fill-rule="evenodd" clip-rule="evenodd" d="M77.6282 32.2319C77.3892 32.2459 76.8102 32.2463 76.1449 32.2463C75.9574 32.2463 75.7728 32.2345 75.5916 32.2117C74.5599 32.2028 73.132 32.1941 71.5077 32.189C66.8663 32.1742 60.7926 32.1882 57.8143 32.2959C57.6995 32.3001 57.5827 32.3043 57.4641 32.3085C54.5725 32.4121 50.5698 32.5555 46.7365 33.2643C42.5142 34.045 39.6942 35.3148 38.4649 36.8265C38.297 37.0329 38.0605 37.4295 37.8674 37.9776C37.759 38.2851 37.6844 38.5835 37.6393 38.8527C43.5078 39.8386 48.8415 42.1649 53.6842 44.3944C54.2765 44.667 54.8607 44.9378 55.4382 45.2054C60.123 47.3767 64.3639 49.3422 68.8641 50.449C69.4289 50.5879 70.5818 50.6809 72.613 50.8448C72.8779 50.8661 73.1577 50.8887 73.4531 50.9127C75.7303 51.098 78.5757 51.3585 81.3129 51.9234C83.9713 52.4719 87.0271 53.4003 89.4378 55.2187C92.1045 57.2299 93.9033 60.3065 93.5745 64.3494C93.2145 68.7763 89.8298 71.2598 87.5926 72.4974C85.7196 73.5335 83.5121 74.2919 82.3211 74.7011C82.0543 74.7927 81.8385 74.8669 81.6889 74.9227C70.747 79.0047 59.6607 81.4266 48.5008 83.0307C43.9591 83.6835 41.3375 83.6982 38.6987 83.5244C38.0415 83.4811 37.4194 83.4301 36.7874 83.3783C34.9797 83.2301 33.091 83.0752 30.0666 83.0752C27.6486 83.0752 25.6885 81.1151 25.6885 78.6971C25.6885 76.2792 27.6486 74.319 30.0666 74.319C33.4845 74.319 35.8319 74.5121 37.6889 74.6648C38.2578 74.7116 38.7807 74.7546 39.2742 74.7871C41.2773 74.9191 43.2881 74.9338 47.255 74.3636C58.0006 72.819 68.44 70.5197 78.6283 66.7188C79.0657 66.5556 79.4977 66.4056 79.9254 66.2572C81.0945 65.8513 82.2309 65.4568 83.3541 64.8354C84.058 64.446 84.4798 64.1023 84.7015 63.8493C84.8013 63.7353 84.8356 63.6679 84.8438 63.6501C84.8486 63.6396 84.8468 63.6434 84.8472 63.6397C84.9018 62.9676 84.7602 62.6582 84.1652 62.2094C83.3143 61.5676 81.7871 60.9618 79.5434 60.4989C77.3788 60.0522 75.0033 59.824 72.743 59.6401C72.4707 59.6179 72.189 59.5959 71.9019 59.5735C70.105 59.4333 68.0916 59.2762 66.7729 58.9518C61.3907 57.6281 56.3416 55.282 51.7555 53.151C51.1702 52.879 50.5925 52.6106 50.0225 52.3482C44.806 49.9467 40.0993 47.9738 35.1466 47.3327C32.9189 47.0444 31.1299 45.837 30.0415 44.0719C29.0588 42.4784 28.813 40.7184 28.8302 39.3021C28.8638 36.5302 29.9261 33.4484 31.6714 31.3021C35.0191 27.1853 40.6424 25.4865 45.1445 24.654C49.6332 23.8241 54.2095 23.662 57.0484 23.5615C57.2035 23.556 57.3534 23.5507 57.4978 23.5455C60.6798 23.4304 66.932 23.4182 71.5356 23.4328C73.8528 23.4402 75.7951 23.4546 76.779 23.4674C77.0219 23.4705 77.2244 23.4738 77.3632 23.4772L77.3661 23.4773C77.4136 23.4784 77.5283 23.4813 77.6391 23.4881C77.6657 23.4898 77.7551 23.4953 77.8667 23.5078C77.9117 23.5128 78.0507 23.5286 78.2258 23.5629C78.3224 23.5829 78.5715 23.6453 78.7233 23.6911C78.9976 23.7893 79.8401 24.2347 80.3594 24.6471C81.3551 26.0138 81.4675 29.4415 80.4795 30.9571C79.9236 31.4269 79.0113 31.9248 78.7165 32.0307C78.3307 32.1539 78.0043 32.1948 77.9612 32.2002L77.9572 32.2007C77.7929 32.2225 77.6588 32.2302 77.631 32.2318L77.6282 32.2319ZM37.6063 39.7107C37.6062 39.7107 37.6059 39.7094 37.6053 39.7067C37.606 39.7093 37.6063 39.7107 37.6063 39.7107Z" fill="black"/>
</svg>
