<svg width="120" height="120" viewBox="0 0 120 120" fill="none" xmlns="http://www.w3.org/2000/svg">
<path fill-rule="evenodd" clip-rule="evenodd" d="M52.1966 23.2607H21.2228C18.8049 23.2607 16.8447 21.3006 16.8447 18.8827C16.8447 16.4647 18.8049 14.5046 21.2228 14.5046H54.9269C54.9697 14.5039 55.0125 14.5039 55.0554 14.5046H98.7776C101.196 14.5046 103.156 16.4647 103.156 18.8827C103.156 21.3006 101.196 23.2607 98.7776 23.2607H61.0443C61.2358 24.7447 61.3812 26.416 61.494 28.195C61.8639 34.0299 61.9242 41.7475 61.8471 49.611C61.7697 57.4986 61.5527 65.6342 61.3559 72.3369C61.3132 73.7877 61.2718 75.1653 61.233 76.4557L61.2327 76.466V76.4661C61.0905 81.1923 60.9836 84.7462 60.9836 86.4305C60.9836 88.8485 59.0234 90.8086 56.6055 90.8086C54.1875 90.8086 52.2274 88.8485 52.2274 86.4305C52.2274 84.6013 52.3406 80.8424 52.484 76.0798L52.484 76.0789L52.4843 76.0694C52.5224 74.8045 52.5626 73.4688 52.6034 72.0799C52.8 65.3882 53.0148 57.3232 53.0913 49.5251C53.168 41.7029 53.1041 34.2495 52.7553 28.749C52.6089 26.4391 52.4189 24.5954 52.1966 23.2607Z" fill="black"/>
</svg>
