<svg width="120" height="120" viewBox="0 0 120 120" fill="none" xmlns="http://www.w3.org/2000/svg">
<path fill-rule="evenodd" clip-rule="evenodd" d="M84.7698 20.2031C87.1878 20.2031 89.1479 22.1633 89.1479 24.5812C89.1479 27.8701 89.4954 31.3602 89.8747 35.1699L89.8757 35.1799C90.2468 38.9079 90.6465 42.9302 90.6465 46.9079C90.6465 52.8057 90.4588 58.7432 88.5578 64.341C86.5928 70.1268 82.9147 75.2543 76.5077 79.8753C74.3539 81.4286 71.2648 82.8059 67.9842 83.8777C64.6352 84.9718 60.7819 85.8464 56.9339 86.2527C53.1215 86.6552 49.0863 86.6226 45.4768 85.7313C41.8705 84.8407 38.222 82.9609 36.0494 79.3093C35.5962 78.5476 35.0549 77.7867 34.4116 76.9172C34.2951 76.7597 34.1728 76.5956 34.0466 76.426C33.5184 75.717 32.9203 74.9139 32.3809 74.1131C31.0158 72.0867 29.5556 69.4202 29.4419 66.0227C29.3094 62.0638 29.3541 58.0119 29.3976 54.0807C29.4187 52.1714 29.4394 50.2905 29.4394 48.4627V25.7007C29.4394 23.2827 31.3996 21.3226 33.8175 21.3226C36.2355 21.3226 38.1956 23.2827 38.1956 25.7007V48.4627C38.1956 50.5018 38.1733 52.4885 38.1513 54.4468C38.1085 58.2561 38.0669 61.958 38.1932 65.7298C38.2254 66.6919 38.619 67.701 39.643 69.2211C40.0554 69.8333 40.4947 70.4235 41.0081 71.1134C41.1497 71.3036 41.2969 71.5014 41.4507 71.7093C42.1229 72.6179 42.8843 73.6721 43.5744 74.8321C44.1269 75.7606 45.2915 76.6663 47.5761 77.2305C49.8574 77.7938 52.7908 77.8853 56.0146 77.5449C59.2027 77.2083 62.453 76.4731 65.265 75.5545C68.1452 74.6135 70.2742 73.5751 71.3856 72.7735C76.4577 69.1153 78.9405 65.43 80.2667 61.5252C81.6567 57.4323 81.8903 52.8011 81.8903 46.9079C81.8903 43.4366 81.5407 39.8454 81.1626 36.0474L81.139 35.8108C80.7761 32.1674 80.3917 28.3085 80.3917 24.5812C80.3917 22.1633 82.3519 20.2031 84.7698 20.2031Z" fill="black"/>
</svg>
