<svg width="120" height="120" viewBox="0 0 120 120" fill="none" xmlns="http://www.w3.org/2000/svg">
<g clip-path="url(#clip0_2055_34)">
<path fill-rule="evenodd" clip-rule="evenodd" d="M90.4066 47.0289C87.2146 53.948 84.1019 60.6951 82.0396 64.8206C76.184 76.5344 70.2417 84.0276 61.7194 92.4125C60.2581 93.8503 58.5286 95.1012 56.5056 95.5576C54.2095 96.0756 52.1035 95.4439 50.5081 94.142C49.1025 92.9949 48.2409 91.463 47.6911 90.2014C47.1159 88.8818 46.7101 87.4523 46.4111 86.1318C43.3087 72.4309 38.4115 55.513 32.1772 43.4205C31.0692 41.2714 31.9132 38.6309 34.0623 37.5229C36.2115 36.4149 38.8519 37.2589 39.9599 39.4081C46.7111 52.5029 51.8016 70.2888 54.9511 84.198C55.1291 84.9842 55.3229 85.6644 55.5264 86.2216C55.5436 86.205 55.5609 86.188 55.5784 86.1708C63.5358 78.3416 68.8546 71.6136 74.2075 60.9054C76.2241 56.8714 79.2108 50.3955 82.3391 43.6125C84.4389 39.0596 86.6024 34.3684 88.5793 30.1843C90.9729 25.1183 93.1595 20.653 94.535 18.3758C94.859 17.8394 95.2942 17.1572 95.7863 16.6098L95.796 16.599C95.9647 16.411 96.6038 15.6989 97.6348 15.2786C98.2492 15.0282 99.3883 14.7282 100.72 15.1588C102.112 15.6088 102.906 16.5914 103.293 17.3132C103.891 18.4277 103.862 19.5206 103.855 19.7798C103.855 19.7874 103.855 19.7944 103.855 19.8006C103.844 20.2437 103.787 20.669 103.73 21.013C103.613 21.7183 103.41 22.5737 103.152 23.5376C102.73 25.1138 101.499 26.2575 100.026 26.6423C99.0335 28.61 97.8338 31.0942 96.4963 33.9249C94.6133 37.9103 92.493 42.5063 90.4066 47.0289Z" fill="black"/>
</g>
<defs>
<clipPath id="clip0_2055_34">
<rect width="120" height="120" fill="white"/>
</clipPath>
</defs>
</svg>
