<svg width="120" height="120" viewBox="0 0 120 120" fill="none" xmlns="http://www.w3.org/2000/svg">
<path fill-rule="evenodd" clip-rule="evenodd" d="M8.49242 10.6711C10.9104 10.6711 12.8705 12.6313 12.8705 15.0492C12.8705 15.1815 12.8664 15.2993 12.8614 15.3963C12.8609 15.4076 12.8603 15.4187 12.8597 15.4296C14.488 21.4881 16.9768 27.5149 19.5121 33.6541C20.3786 35.7523 21.2505 37.8638 22.0953 39.9941C22.9218 42.078 23.7336 44.1571 24.542 46.2278C25.4123 48.4567 26.2788 50.6759 27.1557 52.8811C27.2357 50.1998 27.4433 47.4791 27.9128 44.8364L27.9208 44.7911C28.1121 43.7134 28.5182 41.4259 29.3811 39.3578C29.8194 38.3073 30.4931 37.0156 31.5556 35.9311C32.6908 34.7723 34.3797 33.7607 36.5672 33.7607C38.4323 33.7607 39.8 34.6745 40.5346 35.2848C41.3169 35.9346 41.9279 36.6954 42.357 37.2865C42.8045 37.903 43.1887 38.5251 43.4702 38.9913C43.5952 39.1983 43.6369 39.2685 43.675 39.3325C43.7104 39.3921 43.7427 39.4463 43.8362 39.6011C43.8855 39.6825 43.9241 39.7456 43.9555 39.7955C43.9707 39.8198 43.9826 39.8383 43.9914 39.852L44.0014 39.8672C44.0029 39.8695 44.0039 39.8709 44.0044 39.8717L44.0048 39.8722C46.0686 42.902 48.0541 45.8998 50.0208 48.8692C53.6156 54.2967 57.1475 59.6292 60.9797 64.8891C61.4269 65.5029 64.6711 69.7256 67.9373 73.0532C68.1981 73.319 68.4507 73.5702 68.6943 73.8067C68.6644 72.5741 68.6701 71.0533 68.9298 69.5696C70.3015 61.7313 73.6411 54.1462 77.0938 47.5862C78.0126 45.8405 78.9389 43.9506 79.9015 41.9866C82.7348 36.206 85.8826 29.7838 90.0777 24.5099C90.1445 24.426 90.2091 24.3448 90.2717 24.2662C91.8456 22.2891 92.15 21.9066 92.3185 20.7272C92.6605 18.3336 94.8781 16.6703 97.2718 17.0123C99.6654 17.3543 101.329 19.5719 100.987 21.9655C100.469 25.5911 98.7181 27.7516 97.3332 29.4607C97.1947 29.6316 97.0599 29.798 96.9303 29.9609C93.3755 34.4298 90.8591 39.5606 88.1565 45.0709C87.1041 47.2167 86.0235 49.4201 84.8423 51.6644C81.5499 57.9199 78.6952 64.5627 77.5549 71.079C77.4045 71.9386 77.4296 72.8402 77.47 74.2927C77.4749 74.4673 77.48 74.6498 77.485 74.8411C77.5259 76.3988 77.5595 78.5997 76.8718 80.8279C76.3114 82.6438 74.8757 84.5546 72.3136 84.9877C70.342 85.3209 68.6285 84.5673 67.674 84.0596C65.6035 82.9586 63.4475 80.9791 61.6883 79.1868C58.0195 75.449 54.4969 70.861 53.9026 70.0453C49.9677 64.6445 46.2314 59.0054 42.5579 53.4609C40.6356 50.5597 38.7305 47.6844 36.8231 44.8827C36.7105 45.3946 36.6166 45.9027 36.534 46.3678C35.7718 50.6585 35.8397 55.0227 35.9138 59.7913C35.9367 61.2589 35.9601 62.7648 35.9601 64.3186C35.9601 64.1624 36.0216 66.408 35.9754 68.2156C35.952 69.129 35.8987 70.2431 35.7503 71.1583C35.6943 71.5042 35.55 72.3607 35.1133 73.1863C34.9199 73.5519 34.3035 74.6349 32.9447 75.2586C31.1666 76.0747 29.4804 75.5462 28.4895 74.8649C27.3148 74.0573 26.5401 72.9771 26.0835 72.2515C25.5915 71.4696 25.2183 70.6853 24.9843 70.1792C21.8188 63.333 19.0314 56.1925 16.3219 49.2515C15.5291 47.2205 14.7429 45.2065 13.9559 43.2221C13.2155 41.3552 12.4137 39.415 11.5899 37.4217C8.93228 30.991 6.04608 24.0072 4.2561 17.1456C4.03547 16.2998 4.07289 15.5743 4.09161 15.2753C4.09687 15.1913 4.10285 15.1164 4.10697 15.0662C4.10932 15.0374 4.11085 15.0192 4.11203 15.005C4.11323 14.9907 4.11407 14.9806 4.11507 14.9681C4.15831 12.5876 6.10156 10.6711 8.49242 10.6711ZM71.9755 76.4159C71.9762 76.4178 71.9547 76.411 71.9092 76.3904C71.9521 76.4038 71.9748 76.4141 71.9755 76.4159ZM27.0908 69.8395C27.0902 69.8383 27.0941 69.8153 27.1041 69.7746C27.0963 69.8205 27.0913 69.8408 27.0908 69.8395ZM33.6566 67.8188C33.6592 67.8215 33.6605 67.823 33.6605 67.8231C33.6605 67.8232 33.6592 67.8218 33.6566 67.8188Z" fill="black"/>
</svg>
