<svg width="120" height="120" viewBox="0 0 120 120" fill="none" xmlns="http://www.w3.org/2000/svg">
<path fill-rule="evenodd" clip-rule="evenodd" d="M88.0082 11.8425C88.6725 9.51755 87.3262 7.09434 85.0013 6.43008C82.6764 5.76581 80.2532 7.11204 79.5889 9.43696C79.0943 11.1683 78.1445 12.8835 76.8219 14.7734C76.164 15.7134 75.4488 16.6488 74.6805 17.6399C74.562 17.7928 74.4416 17.9478 74.3199 18.1044L74.3198 18.1046C73.6728 18.9374 72.9882 19.8187 72.3406 20.7002C68.782 25.5438 65.9196 30.7983 63.2128 35.7671L63.2127 35.7672L63.212 35.7686C62.6892 36.7283 62.1721 37.6774 61.657 38.6108C60.5239 40.6641 59.3717 42.7095 58.1965 44.741C58.1408 44.673 58.085 44.6051 58.0293 44.5372C55.7834 41.8009 53.5292 39.1338 51.2972 36.493L51.297 36.4926C45.3175 29.4179 39.4981 22.5324 34.4273 15.0137C33.0753 13.009 30.3543 12.4799 28.3496 13.8319C26.3449 15.1839 25.8158 17.905 27.1678 19.9096C32.5257 27.8541 38.8033 35.281 44.8817 42.4723L44.8817 42.4723L44.8818 42.4724C47.0505 45.0381 49.1938 47.5739 51.261 50.0925C51.9772 50.9651 52.6922 51.8377 53.4058 52.7105C46.7955 63.2609 39.3856 73.1883 30.5769 81.5776C27.6766 84.3397 24.4954 86.5793 20.8822 88.8578C20.8871 88.8548 20.8835 88.8567 20.8638 88.8673L20.8633 88.8676C20.8242 88.8887 20.7232 88.9432 20.5018 89.0593L20.4734 89.0742C20.2314 89.2011 19.8403 89.4062 19.4786 89.6259C19.2864 89.7426 19.0297 89.9068 18.7649 90.1108C18.547 90.2786 18.0788 90.6562 17.6641 91.2404C17.2945 91.7611 16.3668 93.3261 17.0389 95.3338C17.6721 97.2252 19.2229 97.9408 19.7258 98.142C21.6326 98.9047 23.758 98.2319 24.9053 96.6362C25.1053 96.5289 25.3437 96.3962 25.553 96.2643C29.3755 93.8537 33.1093 91.2577 36.6156 87.9183C45.3684 79.5823 52.7405 69.9362 59.2249 59.8797C65.5535 67.7432 71.7311 75.6713 77.6286 83.817C78.3255 84.7796 79.0472 85.8051 79.7949 86.8676L79.795 86.8677L79.7952 86.868C82.6619 90.9417 85.9122 95.5603 89.6238 99.2719C91.3336 100.982 94.1056 100.982 95.8154 99.2719C97.5251 97.5621 97.5251 94.7901 95.8154 93.0803C92.6927 89.9577 90.0256 86.1746 87.2146 82.1873L87.2134 82.1856C86.3995 81.0311 85.5736 79.8596 84.7211 78.682C78.1027 69.5407 71.1591 60.6969 64.1029 51.9825C65.9061 48.9432 67.6419 45.8883 69.3233 42.8415C69.886 41.8219 70.4352 40.815 70.9774 39.8208L70.9775 39.8207C73.6852 34.8563 76.22 30.2088 79.397 25.8845C79.9689 25.1062 80.5695 24.3329 81.2169 23.4993L81.2169 23.4992C81.3431 23.3368 81.471 23.1721 81.6008 23.0046C82.3774 22.0028 83.2058 20.9227 83.9956 19.7941C85.5685 17.5468 87.1309 14.9131 88.0082 11.8425Z" fill="black"/>
</svg>
