<svg width="120" height="120" viewBox="0 0 120 120" fill="none" xmlns="http://www.w3.org/2000/svg">
<g clip-path="url(#clip0_2055_41)">
<path fill-rule="evenodd" clip-rule="evenodd" d="M90.5699 1.40287C90.5699 -1.01508 88.6097 -2.97522 86.1918 -2.97522C83.9167 -2.97522 82.0469 -1.23985 81.8339 0.979408C81.7907 1.05352 81.7371 1.1411 81.6608 1.26293L81.5907 1.37426L81.5892 1.37666C81.5285 1.47299 81.4539 1.59148 81.3913 1.69259C81.1935 2.01202 80.9145 2.47659 80.6649 3.02275C78.6055 7.52765 76.6158 11.8064 74.3398 16.0783C69.1793 25.7642 63.3726 34.6992 57.3892 43.906L57.3879 43.908C55.913 46.1774 54.4274 48.4634 52.9381 50.7811C52.0478 49.8599 51.3048 48.9142 50.6994 48.1437L50.6994 48.1437C50.4143 47.7809 50.1598 47.4569 49.9347 47.1926C46.0564 42.6378 42.7881 37.5848 39.4922 32.2391C38.9206 31.312 38.3465 30.3731 37.7676 29.4265L37.7676 29.4265C35.0588 24.9967 32.2466 20.3977 29.1026 16.0414C28.8339 15.669 28.5034 15.1911 28.1271 14.6468L28.127 14.6468C27.1434 13.2243 25.8465 11.3488 24.5199 9.72053C22.7186 7.50977 20.1106 4.75174 16.8213 3.57699C14.5442 2.76375 12.039 3.95043 11.2257 6.22752C10.4125 8.5046 11.5992 11.0098 13.8763 11.8231C14.7386 12.131 16.0567 13.1956 17.7316 15.2513C18.8342 16.6047 19.7595 17.9451 20.6664 19.2588L20.6664 19.2588C21.1099 19.9013 21.549 20.5374 22.0024 21.1655C24.932 25.225 27.5348 29.4797 30.2374 33.8976L30.2374 33.8976L30.2376 33.8978C30.8316 34.8689 31.4305 35.8479 32.0388 36.8345C35.365 42.2293 38.9263 47.7704 43.2679 52.8692C43.2671 52.8683 43.2973 52.9044 43.3851 53.0154C43.4466 53.0929 43.5157 53.181 43.5999 53.2883L43.6873 53.3997C43.9303 53.709 44.2476 54.1115 44.6125 54.5575C44.8534 54.8519 45.1218 55.1738 45.412 55.5098C43.6924 56.1003 42.4565 57.7316 42.4565 59.6516C42.4565 61.881 44.1229 63.7212 46.2781 63.9946C46.4376 64.2352 46.6615 64.6606 46.9 65.3345C47.5177 67.0795 47.8084 69.1978 48.0199 70.739L48.0364 70.8594C48.4945 74.1935 48.4085 77.4971 48.3136 81.1403C48.2721 82.7354 48.2289 84.3957 48.2289 86.1521C48.2289 86.6702 48.2309 87.1636 48.2328 87.6357V87.637C48.2469 91.1585 48.2563 93.4932 47.404 96.05C46.6394 98.3439 47.8791 100.823 50.173 101.588C52.4668 102.353 54.9462 101.113 55.7109 98.819C57.0516 94.7968 57.0202 90.9388 56.9927 87.5408C56.9888 87.0688 56.9851 86.6056 56.9851 86.1521C56.9851 84.8992 57.0202 83.5371 57.057 82.1073L57.057 82.107C57.1581 78.1844 57.2723 73.752 56.7111 69.6675C56.7 69.5868 56.6882 69.4997 56.6756 69.4066C56.4785 67.9528 56.0834 65.0374 55.1544 62.4129C54.9687 61.8881 54.7457 61.3268 54.4749 60.7577C54.696 60.7303 54.9219 60.6894 55.1517 60.6327C56.7585 60.2358 57.94 59.2176 58.6912 58.0372C60.627 54.9951 62.5977 51.963 64.5751 48.9208L64.5752 48.9207C70.6127 39.6318 76.7119 30.2479 82.0676 20.1956C84.4796 15.6686 86.5643 11.1784 88.6284 6.66322C88.646 6.62475 88.6938 6.53166 88.8358 6.30227C88.857 6.26812 88.8884 6.2182 88.9267 6.15742L88.9284 6.15469L88.9286 6.1544C89.0547 5.95415 89.2537 5.6383 89.4041 5.3798C89.8529 4.60825 90.5699 3.22491 90.5699 1.40287Z" fill="black"/>
</g>
<defs>
<clipPath id="clip0_2055_41">
<rect width="120" height="120" fill="white"/>
</clipPath>
</defs>
</svg>
