<svg width="120" height="120" viewBox="0 0 120 120" fill="none" xmlns="http://www.w3.org/2000/svg">
<path fill-rule="evenodd" clip-rule="evenodd" d="M33.5497 26.0527C27.5524 26.111 21.5333 26.1694 15.4825 26.1694C13.0646 26.1694 11.1044 24.2093 11.1044 21.7913C11.1044 19.3734 13.0646 17.4133 15.4825 17.4133C21.3473 17.4133 27.2611 17.3559 33.2026 17.2984C47.3366 17.1614 61.6278 17.0229 75.7909 17.6508C76.7865 17.6949 83.3415 18.4791 89.2991 19.2726C92.348 19.6786 95.3763 20.1053 97.6393 20.4702C98.7571 20.6504 99.7588 20.8268 100.5 20.9875C100.842 21.0616 101.278 21.1637 101.677 21.2979C101.821 21.3463 102.278 21.5002 102.764 21.8017C102.965 21.9265 103.598 22.3299 104.12 23.1037C104.793 24.1011 105.302 25.8465 104.368 27.6204C103.87 28.5664 103.133 29.2348 102.815 29.5155C102.388 29.8928 101.932 30.2333 101.558 30.4987C101.172 30.7724 100.804 31.0135 100.525 31.1916C100.384 31.2817 100.262 31.3581 100.167 31.4165L100.049 31.4891L99.9992 31.5199C95.9869 34.0028 91.7386 36.3045 87.63 38.5306C85.7066 39.5726 83.8138 40.5981 81.9902 41.6179C71.3842 47.5486 60.9106 53.7539 50.6493 60.2427C49.6149 60.8967 48.5689 61.5519 47.5161 62.2112C42.9559 65.0673 38.2691 68.0026 33.853 71.2774C32.4761 72.2985 31.1457 73.3385 29.8748 74.4015C36.9022 73.0132 44.975 73.3033 52.5088 73.8995C55.8642 74.1651 59.119 74.49 62.2348 74.8011C68.7984 75.4565 74.7456 76.0503 79.7188 75.8972L80.1591 75.8837L80.5933 75.9581L79.8534 80.2733C80.5933 75.9581 80.593 75.9581 80.5933 75.9581L80.5947 75.9584L80.6428 75.9667L80.7772 75.99C80.894 76.0103 81.0639 76.0401 81.2802 76.0784C81.7127 76.1551 82.331 76.2661 83.0801 76.4045C84.576 76.6809 86.6044 77.0686 88.7207 77.5116C90.8257 77.9522 93.07 78.4585 94.9792 78.974C95.9312 79.231 96.8535 79.5047 97.6588 79.7891C98.3725 80.0412 99.3263 80.4134 100.124 80.9452C102.136 82.2864 102.679 85.0047 101.338 87.0165C100.013 89.0039 97.3447 89.5586 95.3407 88.279C95.341 88.2792 95.3407 88.2789 95.3407 88.279C95.3392 88.2816 95.1742 88.1978 94.7427 88.0455C94.2257 87.8628 93.5362 87.6541 92.6967 87.4274C91.0228 86.9755 88.965 86.5087 86.9266 86.082C84.8992 85.6576 82.9426 85.2835 81.4893 85.015C80.7638 84.8809 80.1665 84.7737 79.752 84.7002C79.6716 84.686 79.5981 84.673 79.5319 84.6613C74.0533 84.7829 67.3277 84.1136 60.6215 83.4463C57.6463 83.1502 54.675 82.8545 51.8181 82.6284C41.7952 81.8353 32.9865 81.8556 27.0047 84.321C24.6123 85.3071 22.3684 86.4796 19.8982 87.7703C19.475 87.9915 19.0451 88.2161 18.6067 88.4438C18.5918 88.4531 18.5691 88.4675 18.537 88.488C18.5304 88.4922 18.5227 88.4972 18.5138 88.5028C18.4127 88.5677 18.1692 88.7239 17.9036 88.8677C17.3923 89.1445 15.9025 89.8909 14.0125 89.4184C12.2359 88.9743 11.2445 87.6186 10.8836 86.4669C10.6012 85.5658 10.6862 84.8133 10.7193 84.5604C10.7945 83.985 10.9703 83.5407 11.0188 83.4182L11.0207 83.4133C11.1562 83.0708 11.3213 82.7585 11.4164 82.5826C11.637 82.1749 11.922 81.7017 12.1686 81.3024C12.677 80.479 13.2074 79.671 13.2264 79.6423C17.2308 73.5667 22.8449 68.5397 28.6373 64.2441C33.3582 60.7433 38.4064 57.5829 42.9807 54.7191C44.0036 54.0788 45.0029 53.4532 45.9694 52.842C56.3737 46.2628 66.9836 39.9772 77.7167 33.9754C79.7631 32.831 81.7722 31.7431 83.7515 30.6713C85.3926 29.7826 87.0132 28.905 88.6177 28.0155C88.4598 27.9944 88.3016 27.9732 88.1431 27.9521C85.1255 27.5502 82.0505 27.1639 79.6399 26.8744C78.434 26.7295 77.4016 26.6097 76.6298 26.5246C76.2429 26.482 75.9306 26.449 75.6988 26.4263C75.5362 26.4103 75.4473 26.4028 75.4111 26.3997C75.3869 26.3977 75.3864 26.3976 75.4031 26.3984C61.4868 25.7814 47.5779 25.9165 33.5497 26.0527Z" fill="black"/>
</svg>
